<?xml version="1.0" encoding="UTF-8" standalone="no"?>
<!DOCTYPE svg PUBLIC "-//W3C//DTD SVG 1.1//EN" "http://www.w3.org/Graphics/SVG/1.1/DTD/svg11.dtd">
<svg width="100%" height="100%" viewBox="0 0 437 396" version="1.1" xmlns="http://www.w3.org/2000/svg" xmlns:xlink="http://www.w3.org/1999/xlink" xml:space="preserve" xmlns:serif="http://www.serif.com/" style="fill-rule:evenodd;clip-rule:evenodd;stroke-linejoin:round;stroke-miterlimit:2;">
    <g transform="matrix(0.314563,0,0,0.314563,303.082142,118.867472)">
        <path d="M0,524.254L-145.994,524.254L-157.055,477.801C-362.774,590.615 -484.437,468.953 -535.313,395.956C-586.19,322.958 -612.735,101.754 -442.408,17.696C-272.081,-66.361 -145.994,39.817 -145.994,39.817L-192.447,188.024C-263.232,90.694 -391.531,134.935 -415.863,203.508C-440.196,272.081 -404.803,373.835 -314.109,380.472C-223.416,387.108 -190.235,325.17 -170.327,269.869C-150.418,214.568 -90.693,6.637 -90.693,6.637L44.241,4.425C44.241,4.425 15.484,128.299 -6.636,245.537C-28.756,362.775 0,524.254 0,524.254" style="fill:white;fill-rule:nonzero;"/>
    </g>
</svg>
