<?xml version="1.0" encoding="UTF-8" standalone="no"?>
<!DOCTYPE svg PUBLIC "-//W3C//DTD SVG 1.1//EN" "http://www.w3.org/Graphics/SVG/1.1/DTD/svg11.dtd">
<svg width="100%" height="100%" viewBox="0 0 750 700" version="1.1" xmlns="http://www.w3.org/2000/svg" xmlns:xlink="http://www.w3.org/1999/xlink" xml:space="preserve" xmlns:serif="http://www.serif.com/" style="fill-rule:evenodd;clip-rule:evenodd;stroke-linejoin:round;stroke-miterlimit:2;">
    <g transform="matrix(1,0,0,1,-152.999931,-163.999978)">
        <g id="DataCentral" transform="matrix(7.836295,0,0,7.498928,153.000061,164.000018)">
            <path d="M56,93.33L6.17,93.33C2.787,93.325 0.005,90.543 0,87.16L0,37.35C-0.006,30.457 1.898,23.696 5.5,17.82C5.597,17.703 5.741,17.635 5.893,17.635C6.173,17.635 6.403,17.865 6.403,18.145C6.403,18.216 6.388,18.285 6.36,18.35C2.848,24.064 0.992,30.643 1,37.35L1,87.16C1.005,89.994 3.336,92.325 6.17,92.33L56,92.33C75.916,92.292 92.292,75.916 92.33,56L92.33,37.35C92.303,17.427 75.923,1.038 56,1L37.35,1C30.819,0.996 24.406,2.755 18.79,6.09C18.715,6.133 18.629,6.156 18.542,6.156C18.268,6.156 18.042,5.93 18.042,5.656C18.042,5.482 18.133,5.321 18.28,5.23C24.05,1.804 30.639,-0.004 37.35,0L56,0C76.474,0.033 93.308,16.876 93.33,37.35L93.33,56C93.297,76.466 76.466,93.297 56,93.33Z" style="fill:white;fill-rule:nonzero;"/>
            <path d="M58.8,0.5L56,0.5C76.208,0.511 92.83,17.142 92.83,37.35L92.83,56C92.819,76.2 76.2,92.819 56,92.83L58.8,92.83C79.008,92.83 95.639,76.208 95.65,56L95.65,37.35C95.65,17.135 79.015,0.5 58.8,0.5Z" style="fill:white;fill-rule:nonzero;"/>
            <path d="M55.6,46.69C55.46,45.26 55.29,43.95 55.23,42.63C55.292,42.284 55.51,41.986 55.82,41.82C60.63,39.34 65.45,36.9 70.26,34.42C70.687,34.171 71.225,34.202 71.62,34.5C72.29,34.897 73.055,35.107 73.833,35.107C76.214,35.107 78.173,33.148 78.173,30.767C78.173,30.483 78.145,30.199 78.09,29.92C77.817,28.179 76.464,26.794 74.73,26.48C72.12,25.87 69.73,27.65 69.46,30.56C69.453,31.056 69.155,31.503 68.7,31.7C63.99,34.07 59.27,36.44 54.59,38.87C54.391,39.025 54.147,39.109 53.895,39.109C53.494,39.109 53.123,38.896 52.92,38.55C52.502,38.029 51.99,37.592 51.41,37.26C50.72,36.88 50.65,36.51 50.98,35.83C53.04,31.6 55.05,27.34 57.08,23.09C58.32,20.497 59.553,17.907 60.78,15.32C60.925,14.841 61.369,14.511 61.87,14.51C64.149,14.32 66.005,12.556 66.31,10.29C66.586,8.107 65.408,5.982 63.41,5.06C62.786,4.792 62.114,4.653 61.435,4.653C58.692,4.653 56.435,6.91 56.435,9.653C56.435,10.721 56.777,11.761 57.41,12.62C57.63,12.91 57.89,13.18 58.16,13.49C56.827,16.263 55.513,19.033 54.22,21.8C52.09,26.2 50,30.58 47.92,35C47.53,35.86 46.92,35.7 46.4,35.57C46.05,35.403 45.798,35.08 45.72,34.7C44.66,29.7 43.72,24.7 42.61,19.7C42.422,19.138 42.631,18.515 43.12,18.18C45.143,16.468 45.495,13.441 43.92,11.31C42.951,9.988 41.406,9.205 39.767,9.205C36.942,9.205 34.617,11.53 34.617,14.355C34.617,14.625 34.638,14.894 34.68,15.16C34.967,17.165 36.446,18.806 38.41,19.3C39.009,19.348 39.488,19.831 39.53,20.43C40.53,25.43 41.59,30.43 42.63,35.43C42.673,35.535 42.695,35.648 42.695,35.761C42.695,36.144 42.445,36.485 42.08,36.6C41.277,37.022 40.5,37.49 39.75,38C38.91,37.16 38,36.29 37.11,35.39C31.55,29.76 23.11,20.81 17.56,15.19C17.021,14.8 16.857,14.061 17.18,13.48C17.484,12.749 17.641,11.966 17.641,11.175C17.641,8.596 15.978,6.292 13.53,5.48C12.915,5.277 12.273,5.174 11.625,5.174C8.958,5.174 6.588,6.929 5.81,9.48C5.631,10.052 5.54,10.649 5.54,11.249C5.54,14.058 7.537,16.501 10.29,17.06C11.439,17.183 12.6,17.102 13.72,16.82C14.26,16.72 14.6,16.65 15.02,17.09C21.51,23.69 30.85,33.59 37.37,40.17C38.19,41 37.3,41.54 37.22,42.32C34.67,41.84 32.22,41.38 29.7,40.9C27.01,40.39 24.33,39.9 21.64,39.36C21.012,39.328 20.48,38.875 20.35,38.26C19.667,36.132 17.575,34.755 15.35,34.97C12.84,35.173 10.883,37.296 10.883,39.814C10.883,41.692 11.971,43.409 13.67,44.21C15.671,45.16 18.083,44.607 19.47,42.88C19.735,42.452 20.254,42.247 20.74,42.38C25.85,43.38 30.96,44.38 36.07,45.38C36.65,45.49 36.8,45.72 36.92,46.26C37.04,46.8 36.76,47.09 36.31,47.33L21.28,55.44C18.57,56.89 15.86,58.33 13.17,59.81C13.003,59.945 12.794,60.019 12.579,60.019C12.273,60.019 11.986,59.87 11.81,59.62C10.876,58.707 9.621,58.196 8.315,58.196C5.572,58.196 3.315,60.453 3.315,63.196C3.315,65.939 5.572,68.196 8.315,68.196C10.756,68.196 12.857,66.409 13.25,64C13.32,63.597 13.546,63.237 13.88,63C21.78,58.733 29.69,54.483 37.61,50.25C38.06,50 38.39,49.96 38.68,50.48C38.929,50.851 39.206,51.202 39.51,51.53C37.31,54.82 35.13,58.1 32.94,61.37C31.21,63.95 29.47,66.53 27.76,69.12C27.504,69.664 26.912,69.972 26.32,69.87C26.13,69.847 25.939,69.836 25.748,69.836C23.265,69.836 21.164,71.748 20.93,74.22C20.919,74.353 20.914,74.487 20.914,74.621C20.914,77.364 23.171,79.621 25.914,79.621C28.138,79.621 30.107,78.138 30.72,76C31.057,74.792 30.883,73.497 30.24,72.42C29.932,71.992 29.953,71.405 30.29,71C34.08,65.38 37.85,59.74 41.65,54.13C41.879,53.805 42.253,53.611 42.65,53.61C42.687,53.606 42.724,53.604 42.761,53.604C43.309,53.604 43.761,54.055 43.761,54.604C43.761,54.653 43.757,54.702 43.75,54.75C43.75,57.05 43.88,59.36 43.96,61.66C44.16,66.93 44.35,72.2 44.58,77.47C44.668,78.092 44.321,78.7 43.74,78.94C42.105,79.899 41.097,81.659 41.097,83.555C41.097,86.49 43.512,88.905 46.447,88.905C49.382,88.905 51.797,86.49 51.797,83.555C51.797,81.516 50.631,79.647 48.8,78.75C48.038,78.531 47.541,77.787 47.63,77C47.47,71.79 47.27,66.58 47.07,61.38C46.98,59.24 46.85,57.11 46.77,54.98C46.77,54.73 46.96,54.25 47.04,54.25C47.72,54.25 48.44,53.54 49.04,54.36C49.86,55.42 50.7,56.46 51.53,57.5C54.863,61.68 58.197,65.857 61.53,70.03C61.922,70.436 62.036,71.039 61.82,71.56C61.648,72.063 61.56,72.59 61.56,73.122C61.56,75.766 63.736,77.942 66.38,77.942C67.026,77.942 67.665,77.812 68.26,77.56C70.043,76.896 71.239,75.193 71.26,73.29C71.263,73.222 71.264,73.154 71.264,73.085C71.264,70.447 69.093,68.275 66.454,68.275C66.103,68.275 65.753,68.314 65.41,68.39C64.763,68.635 64.026,68.365 63.69,67.76C59.897,62.953 56.057,58.14 52.17,53.32L51.69,52.7C52.5,51.77 53.25,50.86 54.07,50C54.32,49.862 54.614,49.827 54.89,49.9C61.17,51.34 67.45,52.78 73.71,54.26C74.109,54.404 74.42,54.726 74.55,55.13C75.037,58.06 77.597,60.229 80.567,60.229C83.914,60.229 86.667,57.476 86.667,54.129C86.667,50.783 83.914,48.029 80.567,48.029C78.566,48.029 76.688,49.014 75.55,50.66C75.25,51.1 75.01,51.31 74.43,51.17C68.24,49.69 62.03,48.24 55.83,46.77C55.749,46.76 55.67,46.733 55.6,46.69Z" style="fill:white;"/>
        </g>
    </g>
</svg>
